<svg width="411" height="191" viewBox="0 0 411 191" fill="none" xmlns="http://www.w3.org/2000/svg">
<path d="M78.9883 175.738L84.0977 163.938H85.7617L84.0742 168.66L78.6367 181H76.9844L78.9883 175.738ZM77.4297 163.938L78.2266 175.727L78.168 181H76.6328L75.2852 163.938H77.4297ZM88.1523 175.492L92.5 163.938H94.7617L88.0938 181H86.4531L88.1523 175.492ZM85.9375 163.938L87.2852 175.949L87.625 181H86.0898L84.6133 168.461L84.4141 163.938H85.9375ZM105.203 179.16L104.875 181H96.0977L96.4141 179.16H105.203ZM99.5195 163.938L96.5547 181H94.3398L97.3047 163.938H99.5195ZM105.402 171.273L105.086 173.113H97.457L97.7852 171.273H105.402ZM107.723 163.938L107.395 165.789H98.7344L99.0625 163.938H107.723ZM115 173.02H110.676L110.969 171.203L114.66 171.215C115.262 171.215 115.828 171.109 116.359 170.898C116.898 170.688 117.348 170.371 117.707 169.949C118.074 169.527 118.297 168.996 118.375 168.355C118.453 167.746 118.391 167.258 118.188 166.891C117.984 166.516 117.672 166.246 117.25 166.082C116.836 165.91 116.348 165.816 115.785 165.801L112.434 165.789L109.797 181H107.582L110.547 163.938L115.832 163.949C116.543 163.965 117.199 164.062 117.801 164.242C118.41 164.414 118.934 164.68 119.371 165.039C119.809 165.391 120.137 165.844 120.355 166.398C120.582 166.953 120.664 167.617 120.602 168.391C120.539 169.227 120.273 169.93 119.805 170.5C119.344 171.07 118.762 171.52 118.059 171.848C117.363 172.168 116.641 172.379 115.891 172.48L115 173.02ZM113.535 181H108.355L109.914 179.16L113.594 179.172C114.258 179.172 114.871 179.051 115.434 178.809C115.996 178.566 116.461 178.211 116.828 177.742C117.203 177.273 117.434 176.695 117.52 176.008C117.59 175.398 117.543 174.875 117.379 174.438C117.215 174 116.934 173.664 116.535 173.43C116.137 173.188 115.629 173.055 115.012 173.031L111.742 173.02L112.082 171.203L116.242 171.215L116.605 171.871C117.309 171.98 117.898 172.23 118.375 172.621C118.859 173.004 119.211 173.488 119.43 174.074C119.656 174.652 119.746 175.289 119.699 175.984C119.613 177.102 119.277 178.035 118.691 178.785C118.113 179.527 117.371 180.086 116.465 180.461C115.559 180.828 114.582 181.008 113.535 181ZM132.625 181H129.027L129.367 179.16L132.684 179.172C133.926 179.172 135 178.902 135.906 178.363C136.82 177.816 137.555 177.078 138.109 176.148C138.664 175.211 139.031 174.156 139.211 172.984L139.363 171.93C139.457 171.18 139.469 170.445 139.398 169.727C139.336 169.008 139.16 168.359 138.871 167.781C138.582 167.195 138.16 166.727 137.605 166.375C137.051 166.016 136.336 165.824 135.461 165.801L131.594 165.789L131.922 163.938L135.508 163.949C136.648 163.973 137.625 164.207 138.438 164.652C139.258 165.09 139.918 165.68 140.418 166.422C140.926 167.164 141.27 168.012 141.449 168.965C141.637 169.918 141.668 170.918 141.543 171.965L141.402 172.984C141.238 174.141 140.914 175.211 140.43 176.195C139.945 177.172 139.324 178.02 138.566 178.738C137.809 179.457 136.93 180.016 135.93 180.414C134.93 180.805 133.828 181 132.625 181ZM133.176 163.938L130.211 181H127.996L130.961 163.938H133.176ZM154.141 179.16L153.812 181H145.035L145.352 179.16H154.141ZM148.457 163.938L145.492 181H143.277L146.242 163.938H148.457ZM154.34 171.273L154.023 173.113H146.395L146.723 171.273H154.34ZM156.66 163.938L156.332 165.789H147.672L148 163.938H156.66ZM162.402 178.305L169.492 163.938H171.965L163.164 181H161.395L162.402 178.305ZM160.07 163.938L162.66 178.504L162.848 181H161.207L157.762 163.938H160.07ZM186.086 165.578L177.977 181H175.621L184.902 163.938H186.414L186.086 165.578ZM188.031 181L185.207 165.32L185.43 163.938H186.836L190.199 181H188.031ZM188.816 174.684L188.488 176.535H179.172L179.5 174.684H188.816ZM208.164 163.938L205.199 181H203.055L196.961 167.746L194.664 181H192.449L195.414 163.938H197.547L203.664 177.227L205.973 163.938H208.164ZM213.695 181H210.098L210.438 179.16L213.754 179.172C214.996 179.172 216.07 178.902 216.977 178.363C217.891 177.816 218.625 177.078 219.18 176.148C219.734 175.211 220.102 174.156 220.281 172.984L220.434 171.93C220.527 171.18 220.539 170.445 220.469 169.727C220.406 169.008 220.23 168.359 219.941 167.781C219.652 167.195 219.23 166.727 218.676 166.375C218.121 166.016 217.406 165.824 216.531 165.801L212.664 165.789L212.992 163.938L216.578 163.949C217.719 163.973 218.695 164.207 219.508 164.652C220.328 165.09 220.988 165.68 221.488 166.422C221.996 167.164 222.34 168.012 222.52 168.965C222.707 169.918 222.738 170.918 222.613 171.965L222.473 172.984C222.309 174.141 221.984 175.211 221.5 176.195C221.016 177.172 220.395 178.02 219.637 178.738C218.879 179.457 218 180.016 217 180.414C216 180.805 214.898 181 213.695 181ZM214.246 163.938L211.281 181H209.066L212.031 163.938H214.246ZM234.883 181H231.285L231.625 179.16L234.941 179.172C236.184 179.172 237.258 178.902 238.164 178.363C239.078 177.816 239.812 177.078 240.367 176.148C240.922 175.211 241.289 174.156 241.469 172.984L241.621 171.93C241.715 171.18 241.727 170.445 241.656 169.727C241.594 169.008 241.418 168.359 241.129 167.781C240.84 167.195 240.418 166.727 239.863 166.375C239.309 166.016 238.594 165.824 237.719 165.801L233.852 165.789L234.18 163.938L237.766 163.949C238.906 163.973 239.883 164.207 240.695 164.652C241.516 165.09 242.176 165.68 242.676 166.422C243.184 167.164 243.527 168.012 243.707 168.965C243.895 169.918 243.926 170.918 243.801 171.965L243.66 172.984C243.496 174.141 243.172 175.211 242.688 176.195C242.203 177.172 241.582 178.02 240.824 178.738C240.066 179.457 239.188 180.016 238.188 180.414C237.188 180.805 236.086 181 234.883 181ZM235.434 163.938L232.469 181H230.254L233.219 163.938H235.434ZM256.398 179.16L256.07 181H247.293L247.609 179.16H256.398ZM250.715 163.938L247.75 181H245.535L248.5 163.938H250.715ZM256.598 171.273L256.281 173.113H248.652L248.98 171.273H256.598ZM258.918 163.938L258.59 165.789H249.93L250.258 163.938H258.918ZM268.352 176.605C268.422 176.09 268.371 175.66 268.199 175.316C268.027 174.965 267.777 174.672 267.449 174.438C267.121 174.195 266.754 173.996 266.348 173.84C265.941 173.676 265.535 173.523 265.129 173.383C264.543 173.18 263.965 172.941 263.395 172.668C262.832 172.395 262.324 172.066 261.871 171.684C261.418 171.293 261.062 170.832 260.805 170.301C260.555 169.77 260.457 169.148 260.512 168.438C260.574 167.648 260.797 166.957 261.18 166.363C261.562 165.762 262.051 165.262 262.645 164.863C263.238 164.465 263.891 164.168 264.602 163.973C265.312 163.777 266.031 163.688 266.758 163.703C267.766 163.727 268.668 163.953 269.465 164.383C270.262 164.805 270.883 165.398 271.328 166.164C271.773 166.93 271.969 167.832 271.914 168.871L269.711 168.859C269.766 168.18 269.68 167.598 269.453 167.113C269.227 166.621 268.875 166.242 268.398 165.977C267.93 165.711 267.352 165.57 266.664 165.555C266.039 165.539 265.441 165.633 264.871 165.836C264.309 166.039 263.832 166.355 263.441 166.785C263.051 167.207 262.812 167.75 262.727 168.414C262.664 168.875 262.727 169.27 262.914 169.598C263.102 169.926 263.359 170.203 263.688 170.43C264.023 170.656 264.387 170.848 264.777 171.004C265.176 171.16 265.555 171.297 265.914 171.414C266.539 171.625 267.141 171.875 267.719 172.164C268.305 172.445 268.82 172.789 269.266 173.195C269.719 173.594 270.062 174.07 270.297 174.625C270.539 175.18 270.629 175.832 270.566 176.582C270.496 177.395 270.266 178.098 269.875 178.691C269.484 179.285 268.984 179.773 268.375 180.156C267.766 180.531 267.098 180.809 266.371 180.988C265.645 181.168 264.914 181.25 264.18 181.234C263.414 181.227 262.688 181.105 262 180.871C261.32 180.629 260.719 180.285 260.195 179.84C259.672 179.395 259.27 178.855 258.988 178.223C258.707 177.582 258.586 176.855 258.625 176.043L260.816 176.055C260.777 176.602 260.836 177.082 260.992 177.496C261.148 177.91 261.383 178.258 261.695 178.539C262.016 178.812 262.395 179.023 262.832 179.172C263.27 179.312 263.75 179.387 264.273 179.395C264.891 179.41 265.492 179.324 266.078 179.137C266.672 178.949 267.176 178.648 267.59 178.234C268.004 177.82 268.258 177.277 268.352 176.605ZM277.938 163.938L274.973 181H272.77L275.734 163.938H277.938ZM292.656 172.504L291.648 178.75C291.188 179.391 290.613 179.895 289.926 180.262C289.246 180.621 288.516 180.875 287.734 181.023C286.953 181.172 286.191 181.242 285.449 181.234C284.316 181.219 283.359 180.977 282.578 180.508C281.805 180.039 281.191 179.418 280.738 178.645C280.285 177.871 279.98 177.008 279.824 176.055C279.676 175.102 279.668 174.125 279.801 173.125L279.988 171.801C280.145 170.73 280.418 169.707 280.809 168.73C281.207 167.746 281.73 166.875 282.379 166.117C283.035 165.352 283.82 164.754 284.734 164.324C285.648 163.887 286.703 163.68 287.898 163.703C288.984 163.727 289.914 163.953 290.688 164.383C291.469 164.812 292.078 165.414 292.516 166.188C292.961 166.961 293.223 167.879 293.301 168.941H291.121C291.066 168.27 290.91 167.684 290.652 167.184C290.402 166.684 290.039 166.293 289.562 166.012C289.094 165.73 288.508 165.578 287.805 165.555C286.914 165.523 286.141 165.688 285.484 166.047C284.836 166.398 284.289 166.879 283.844 167.488C283.406 168.09 283.055 168.766 282.789 169.516C282.523 170.258 282.332 171.012 282.215 171.777L282.016 173.137C281.93 173.801 281.906 174.496 281.945 175.223C281.992 175.941 282.137 176.613 282.379 177.238C282.629 177.863 283.008 178.375 283.516 178.773C284.023 179.164 284.695 179.367 285.531 179.383C286.008 179.391 286.477 179.359 286.938 179.289C287.406 179.219 287.852 179.094 288.273 178.914C288.695 178.734 289.09 178.48 289.457 178.152L290.148 174.332H286.305L286.633 172.504H292.656ZM310.516 163.938L307.551 181H305.406L299.312 167.746L297.016 181H294.801L297.766 163.938H299.898L306.016 177.227L308.324 163.938H310.516ZM322.281 179.16L321.953 181H313.176L313.492 179.16H322.281ZM316.598 163.938L313.633 181H311.418L314.383 163.938H316.598ZM322.48 171.273L322.164 173.113H314.535L314.863 171.273H322.48ZM324.801 163.938L324.473 165.789H315.812L316.141 163.938H324.801ZM327.625 163.938L332.969 163.949C334.008 163.973 334.926 164.172 335.723 164.547C336.52 164.922 337.125 165.477 337.539 166.211C337.961 166.938 338.125 167.855 338.031 168.965C337.953 169.848 337.703 170.609 337.281 171.25C336.867 171.883 336.332 172.414 335.676 172.844C335.02 173.266 334.293 173.602 333.496 173.852L332.84 174.086H327.543L327.848 172.246L331.609 172.258C332.297 172.258 332.941 172.133 333.543 171.883C334.152 171.633 334.66 171.266 335.066 170.781C335.48 170.289 335.734 169.684 335.828 168.965C335.914 168.277 335.848 167.703 335.629 167.242C335.41 166.781 335.066 166.43 334.598 166.188C334.137 165.945 333.578 165.816 332.922 165.801L329.512 165.789L326.875 181H324.66L327.625 163.938ZM334.398 181L331.715 173.266L333.895 173.254L336.754 180.848L336.742 181H334.398Z" fill="#141414"/>
<path d="M13.125 145H3.82031V111.25H20.4141C21.9766 111.25 23.4844 111.438 24.9375 111.812C26.3906 112.172 27.6719 112.75 28.7812 113.547C29.9062 114.328 30.7969 115.344 31.4531 116.594C32.125 117.844 32.4609 119.359 32.4609 121.141C32.4609 122.531 32.1641 123.844 31.5703 125.078C30.9922 126.297 30.2109 127.391 29.2266 128.359C28.2578 129.312 27.1406 130.109 25.875 130.75C24.6094 131.375 23.2969 131.789 21.9375 131.992C22.5469 133.023 23.1797 134 23.8359 134.922C24.5078 135.844 25.1797 136.711 25.8516 137.523C26.5391 138.32 27.2188 139.062 27.8906 139.75C28.5625 140.422 29.2031 141.039 29.8125 141.602C31.25 142.914 32.6719 144.047 34.0781 145H22.4766C21.5391 144.109 20.6484 143.039 19.8047 141.789C19.0859 140.727 18.3594 139.414 17.625 137.852C16.9062 136.273 16.3516 134.453 15.9609 132.391H13.125V145ZM23.0156 121.141C23.0156 118.875 22.4609 117.211 21.3516 116.148C20.2578 115.086 18.6094 114.555 16.4062 114.555H13.125V129.203H16.4062C17.5781 129.203 18.5781 128.984 19.4062 128.547C20.25 128.094 20.9375 127.5 21.4688 126.766C22 126.016 22.3906 125.156 22.6406 124.188C22.8906 123.219 23.0156 122.203 23.0156 121.141ZM65.5547 131.406C65.5547 132.812 65.3672 134.133 64.9922 135.367C64.6172 136.602 64.0938 137.742 63.4219 138.789C62.7656 139.836 61.9688 140.781 61.0312 141.625C60.0938 142.453 59.0625 143.156 57.9375 143.734C56.8281 144.312 55.6328 144.758 54.3516 145.07C53.0859 145.383 51.7812 145.539 50.4375 145.539C49.0938 145.539 47.7891 145.383 46.5234 145.07C45.2578 144.758 44.0625 144.312 42.9375 143.734C41.8281 143.156 40.8047 142.453 39.8672 141.625C38.9297 140.781 38.125 139.836 37.4531 138.789C36.7969 137.742 36.2812 136.602 35.9062 135.367C35.5312 134.117 35.3438 132.797 35.3438 131.406C35.3438 130.016 35.5312 128.703 35.9062 127.469C36.2812 126.219 36.7969 125.07 37.4531 124.023C38.125 122.977 38.9297 122.039 39.8672 121.211C40.8047 120.367 41.8281 119.656 42.9375 119.078C44.0625 118.5 45.2578 118.055 46.5234 117.742C47.7891 117.43 49.0938 117.273 50.4375 117.273C51.7812 117.273 53.0859 117.43 54.3516 117.742C55.6328 118.055 56.8281 118.5 57.9375 119.078C59.0625 119.656 60.0938 120.367 61.0312 121.211C61.9688 122.039 62.7656 122.977 63.4219 124.023C64.0938 125.07 64.6172 126.219 64.9922 127.469C65.3672 128.703 65.5547 130.016 65.5547 131.406ZM57.4922 131.406C57.4922 130.656 57.4453 129.867 57.3516 129.039C57.2734 128.195 57.1328 127.375 56.9297 126.578C56.7266 125.766 56.4453 124.992 56.0859 124.258C55.7422 123.508 55.3125 122.859 54.7969 122.312C54.2812 121.75 53.6641 121.305 52.9453 120.977C52.2266 120.633 51.3906 120.461 50.4375 120.461C49.5312 120.461 48.7266 120.633 48.0234 120.977C47.3203 121.32 46.7031 121.781 46.1719 122.359C45.6562 122.922 45.2188 123.578 44.8594 124.328C44.5156 125.078 44.2344 125.859 44.0156 126.672C43.7969 127.469 43.6406 128.281 43.5469 129.109C43.4531 129.922 43.4062 130.688 43.4062 131.406C43.4062 132.125 43.4531 132.898 43.5469 133.727C43.6406 134.539 43.7969 135.352 44.0156 136.164C44.2344 136.977 44.5156 137.758 44.8594 138.508C45.2188 139.242 45.6562 139.898 46.1719 140.477C46.7031 141.039 47.3203 141.492 48.0234 141.836C48.7266 142.18 49.5312 142.352 50.4375 142.352C51.375 142.352 52.2031 142.188 52.9219 141.859C53.6406 141.516 54.2578 141.062 54.7734 140.5C55.3047 139.938 55.7422 139.289 56.0859 138.555C56.4297 137.82 56.7031 137.047 56.9062 136.234C57.125 135.422 57.2734 134.602 57.3516 133.773C57.4453 132.945 57.4922 132.156 57.4922 131.406ZM97.8516 145H94.8047L91.2891 139.117C90.9453 140.102 90.4688 140.992 89.8594 141.789C89.2656 142.586 88.5703 143.273 87.7734 143.852C86.9922 144.414 86.125 144.852 85.1719 145.164C84.2344 145.477 83.2422 145.633 82.1953 145.633C80.1328 145.633 78.2891 145.266 76.6641 144.531C75.0391 143.797 73.6641 142.797 72.5391 141.531C71.4141 140.25 70.5547 138.75 69.9609 137.031C69.3672 135.312 69.0703 133.469 69.0703 131.5C69.0703 129.531 69.3672 127.688 69.9609 125.969C70.5547 124.25 71.4141 122.758 72.5391 121.492C73.6641 120.227 75.0391 119.227 76.6641 118.492C78.2891 117.758 80.1328 117.391 82.1953 117.391C83.7734 117.391 85.2188 117.695 86.5312 118.305C87.8594 118.914 88.9922 119.867 89.9297 121.164V107.969H97.8516V145ZM89.8828 131.5C89.8828 130.875 89.8359 130.188 89.7422 129.438C89.6484 128.688 89.5 127.93 89.2969 127.164C89.0938 126.398 88.8281 125.656 88.5 124.938C88.1719 124.219 87.7656 123.578 87.2812 123.016C86.8125 122.453 86.2578 122.008 85.6172 121.68C84.9922 121.336 84.2734 121.164 83.4609 121.164C82.5703 121.164 81.7969 121.328 81.1406 121.656C80.4844 121.969 79.9219 122.398 79.4531 122.945C78.9844 123.477 78.5938 124.094 78.2812 124.797C77.9844 125.5 77.75 126.234 77.5781 127C77.4062 127.766 77.2812 128.539 77.2031 129.32C77.1406 130.086 77.1094 130.812 77.1094 131.5C77.1094 132.188 77.1406 132.922 77.2031 133.703C77.2812 134.469 77.4062 135.234 77.5781 136C77.75 136.766 77.9844 137.508 78.2812 138.227C78.5938 138.93 78.9844 139.555 79.4531 140.102C79.9219 140.633 80.4844 141.062 81.1406 141.391C81.7969 141.703 82.5703 141.859 83.4609 141.859C84.3516 141.859 85.1328 141.703 85.8047 141.391C86.4766 141.078 87.0469 140.656 87.5156 140.125C88 139.578 88.3906 138.961 88.6875 138.273C89 137.57 89.2422 136.836 89.4141 136.07C89.5859 135.289 89.7031 134.508 89.7656 133.727C89.8438 132.945 89.8828 132.203 89.8828 131.5ZM127.477 120.32L123.023 127.703C122.836 127.078 122.594 126.375 122.297 125.594C122 124.812 121.633 124.086 121.195 123.414C120.758 122.727 120.234 122.156 119.625 121.703C119.016 121.234 118.312 121 117.516 121C116.781 121 116.141 121.188 115.594 121.562C115.062 121.938 114.609 122.43 114.234 123.039C113.859 123.633 113.547 124.312 113.297 125.078C113.062 125.828 112.875 126.594 112.734 127.375C112.609 128.141 112.523 128.883 112.477 129.602C112.43 130.305 112.406 130.914 112.406 131.43V145H104.461V117.93H107.508L110.719 124.234C111.156 123.219 111.656 122.289 112.219 121.445C112.781 120.586 113.43 119.852 114.164 119.242C114.898 118.617 115.727 118.133 116.648 117.789C117.586 117.445 118.641 117.273 119.812 117.273C120.422 117.273 121.102 117.328 121.852 117.438C122.602 117.531 123.336 117.703 124.055 117.953C124.773 118.188 125.438 118.5 126.047 118.891C126.656 119.281 127.133 119.758 127.477 120.32ZM139.125 111.391C139.125 111.984 139.008 112.547 138.773 113.078C138.555 113.609 138.25 114.07 137.859 114.461C137.469 114.852 137.008 115.164 136.477 115.398C135.945 115.617 135.383 115.727 134.789 115.727C134.195 115.727 133.633 115.617 133.102 115.398C132.586 115.164 132.133 114.852 131.742 114.461C131.352 114.07 131.039 113.609 130.805 113.078C130.586 112.547 130.477 111.984 130.477 111.391C130.477 110.797 130.586 110.242 130.805 109.727C131.039 109.195 131.352 108.734 131.742 108.344C132.133 107.953 132.586 107.648 133.102 107.43C133.633 107.195 134.195 107.078 134.789 107.078C135.383 107.078 135.945 107.195 136.477 107.43C137.008 107.648 137.469 107.953 137.859 108.344C138.25 108.734 138.555 109.195 138.773 109.727C139.008 110.242 139.125 110.797 139.125 111.391ZM138.773 145H130.828V117.953H138.773V145ZM172.688 141.742C172.688 143.898 172.367 145.93 171.727 147.836C171.086 149.742 170.156 151.406 168.938 152.828C167.719 154.266 166.219 155.398 164.438 156.227C162.672 157.07 160.656 157.492 158.391 157.492C157.141 157.492 155.875 157.352 154.594 157.07C153.328 156.789 152.125 156.352 150.984 155.758C149.859 155.18 148.844 154.438 147.938 153.531C147.047 152.641 146.344 151.586 145.828 150.367L149.25 149.078C149.547 149.844 149.93 150.547 150.398 151.188C150.883 151.828 151.438 152.375 152.062 152.828C152.688 153.297 153.375 153.656 154.125 153.906C154.875 154.172 155.664 154.305 156.492 154.305C158.055 154.305 159.359 153.984 160.406 153.344C161.469 152.703 162.32 151.867 162.961 150.836C163.602 149.805 164.062 148.633 164.344 147.32C164.625 146.023 164.766 144.703 164.766 143.359V141.766C163.828 143.047 162.695 144 161.367 144.625C160.055 145.234 158.609 145.539 157.031 145.539C154.969 145.539 153.125 145.172 151.5 144.438C149.875 143.703 148.5 142.703 147.375 141.438C146.25 140.156 145.391 138.656 144.797 136.938C144.203 135.219 143.906 133.375 143.906 131.406C143.906 129.438 144.203 127.594 144.797 125.875C145.391 124.156 146.25 122.664 147.375 121.398C148.5 120.117 149.875 119.109 151.5 118.375C153.125 117.641 154.969 117.273 157.031 117.273C158.078 117.273 159.07 117.43 160.008 117.742C160.961 118.055 161.828 118.5 162.609 119.078C163.406 119.641 164.102 120.328 164.695 121.141C165.305 121.938 165.781 122.828 166.125 123.812L169.641 117.93H172.688V141.742ZM164.719 131.406C164.719 130.703 164.68 129.961 164.602 129.18C164.539 128.398 164.422 127.625 164.25 126.859C164.078 126.094 163.836 125.367 163.523 124.68C163.227 123.977 162.836 123.359 162.352 122.828C161.883 122.281 161.312 121.852 160.641 121.539C159.969 121.227 159.188 121.07 158.297 121.07C157.406 121.07 156.633 121.234 155.977 121.562C155.32 121.875 154.758 122.305 154.289 122.852C153.82 123.383 153.43 124 153.117 124.703C152.82 125.406 152.586 126.141 152.414 126.906C152.242 127.672 152.117 128.445 152.039 129.227C151.977 129.992 151.945 130.719 151.945 131.406C151.945 132.094 151.977 132.828 152.039 133.609C152.117 134.391 152.242 135.164 152.414 135.93C152.586 136.695 152.82 137.43 153.117 138.133C153.43 138.836 153.82 139.461 154.289 140.008C154.758 140.539 155.32 140.969 155.977 141.297C156.633 141.609 157.406 141.766 158.297 141.766C159.109 141.766 159.828 141.602 160.453 141.273C161.094 140.93 161.648 140.477 162.117 139.914C162.602 139.352 163.008 138.711 163.336 137.992C163.664 137.273 163.93 136.531 164.133 135.766C164.336 135 164.484 134.242 164.578 133.492C164.672 132.727 164.719 132.031 164.719 131.406ZM207.914 131.406C207.914 132.812 207.727 134.133 207.352 135.367C206.977 136.602 206.453 137.742 205.781 138.789C205.125 139.836 204.328 140.781 203.391 141.625C202.453 142.453 201.422 143.156 200.297 143.734C199.188 144.312 197.992 144.758 196.711 145.07C195.445 145.383 194.141 145.539 192.797 145.539C191.453 145.539 190.148 145.383 188.883 145.07C187.617 144.758 186.422 144.312 185.297 143.734C184.188 143.156 183.164 142.453 182.227 141.625C181.289 140.781 180.484 139.836 179.812 138.789C179.156 137.742 178.641 136.602 178.266 135.367C177.891 134.117 177.703 132.797 177.703 131.406C177.703 130.016 177.891 128.703 178.266 127.469C178.641 126.219 179.156 125.07 179.812 124.023C180.484 122.977 181.289 122.039 182.227 121.211C183.164 120.367 184.188 119.656 185.297 119.078C186.422 118.5 187.617 118.055 188.883 117.742C190.148 117.43 191.453 117.273 192.797 117.273C194.141 117.273 195.445 117.43 196.711 117.742C197.992 118.055 199.188 118.5 200.297 119.078C201.422 119.656 202.453 120.367 203.391 121.211C204.328 122.039 205.125 122.977 205.781 124.023C206.453 125.07 206.977 126.219 207.352 127.469C207.727 128.703 207.914 130.016 207.914 131.406ZM199.852 131.406C199.852 130.656 199.805 129.867 199.711 129.039C199.633 128.195 199.492 127.375 199.289 126.578C199.086 125.766 198.805 124.992 198.445 124.258C198.102 123.508 197.672 122.859 197.156 122.312C196.641 121.75 196.023 121.305 195.305 120.977C194.586 120.633 193.75 120.461 192.797 120.461C191.891 120.461 191.086 120.633 190.383 120.977C189.68 121.32 189.062 121.781 188.531 122.359C188.016 122.922 187.578 123.578 187.219 124.328C186.875 125.078 186.594 125.859 186.375 126.672C186.156 127.469 186 128.281 185.906 129.109C185.812 129.922 185.766 130.688 185.766 131.406C185.766 132.125 185.812 132.898 185.906 133.727C186 134.539 186.156 135.352 186.375 136.164C186.594 136.977 186.875 137.758 187.219 138.508C187.578 139.242 188.016 139.898 188.531 140.477C189.062 141.039 189.68 141.492 190.383 141.836C191.086 142.18 191.891 142.352 192.797 142.352C193.734 142.352 194.562 142.188 195.281 141.859C196 141.516 196.617 141.062 197.133 140.5C197.664 139.938 198.102 139.289 198.445 138.555C198.789 137.82 199.062 137.047 199.266 136.234C199.484 135.422 199.633 134.602 199.711 133.773C199.805 132.945 199.852 132.156 199.852 131.406ZM236.344 145H227.039V111.25H245.273C246.852 111.25 248.359 111.461 249.797 111.883C251.25 112.305 252.531 112.945 253.641 113.805C254.75 114.648 255.633 115.719 256.289 117.016C256.961 118.297 257.297 119.805 257.297 121.539C257.297 122.633 257.141 123.664 256.828 124.633C256.516 125.586 256.078 126.461 255.516 127.258C254.969 128.055 254.32 128.773 253.57 129.414C252.82 130.055 252 130.594 251.109 131.031C250.219 131.469 249.273 131.805 248.273 132.039C247.289 132.273 246.289 132.391 245.273 132.391H236.344V145ZM247.875 121.539C247.875 119.367 247.32 117.664 246.211 116.43C245.117 115.18 243.461 114.555 241.242 114.555H236.344V129.203H241.242C242.43 129.203 243.438 129.016 244.266 128.641C245.109 128.25 245.797 127.711 246.328 127.023C246.859 126.336 247.25 125.531 247.5 124.609C247.75 123.672 247.875 122.648 247.875 121.539ZM288.375 145H280.453V141.766C279.516 143.047 278.383 144 277.055 144.625C275.742 145.234 274.297 145.539 272.719 145.539C270.656 145.539 268.812 145.172 267.188 144.438C265.562 143.703 264.188 142.703 263.062 141.438C261.938 140.156 261.078 138.656 260.484 136.938C259.891 135.219 259.594 133.375 259.594 131.406C259.594 129.438 259.891 127.594 260.484 125.875C261.078 124.156 261.938 122.664 263.062 121.398C264.188 120.117 265.562 119.109 267.188 118.375C268.812 117.641 270.656 117.273 272.719 117.273C273.766 117.273 274.758 117.43 275.695 117.742C276.648 118.055 277.516 118.5 278.297 119.078C279.094 119.641 279.789 120.328 280.383 121.141C280.992 121.938 281.469 122.828 281.812 123.812L285.328 117.93H288.375V145ZM280.406 131.406C280.406 130.703 280.367 129.961 280.289 129.18C280.227 128.398 280.109 127.625 279.938 126.859C279.766 126.094 279.523 125.367 279.211 124.68C278.914 123.977 278.523 123.359 278.039 122.828C277.57 122.281 277 121.852 276.328 121.539C275.656 121.227 274.875 121.07 273.984 121.07C273.094 121.07 272.32 121.234 271.664 121.562C271.008 121.875 270.445 122.305 269.977 122.852C269.508 123.383 269.117 124 268.805 124.703C268.508 125.406 268.273 126.141 268.102 126.906C267.93 127.672 267.805 128.445 267.727 129.227C267.664 129.992 267.633 130.719 267.633 131.406C267.633 132.094 267.664 132.828 267.727 133.609C267.805 134.391 267.93 135.164 268.102 135.93C268.273 136.695 268.508 137.43 268.805 138.133C269.117 138.836 269.508 139.461 269.977 140.008C270.445 140.539 271.008 140.969 271.664 141.297C272.32 141.609 273.094 141.766 273.984 141.766C274.797 141.766 275.516 141.602 276.141 141.273C276.781 140.93 277.336 140.477 277.805 139.914C278.289 139.352 278.695 138.711 279.023 137.992C279.352 137.273 279.617 136.531 279.82 135.766C280.023 135 280.172 134.242 280.266 133.492C280.359 132.727 280.406 132.031 280.406 131.406ZM318.305 136.352C318.305 137.539 318.133 138.594 317.789 139.516C317.445 140.438 316.977 141.242 316.383 141.93C315.789 142.602 315.086 143.172 314.273 143.641C313.461 144.094 312.586 144.461 311.648 144.742C310.727 145.023 309.758 145.227 308.742 145.352C307.727 145.477 306.719 145.539 305.719 145.539C304.375 145.539 303.188 145.453 302.156 145.281C301.125 145.109 300.141 144.836 299.203 144.461C298.266 144.07 297.328 143.57 296.391 142.961C295.469 142.352 294.438 141.609 293.297 140.734L297.914 136.961C298.336 137.758 298.891 138.484 299.578 139.141C300.281 139.781 301.008 140.336 301.758 140.805C302.508 141.273 303.234 141.633 303.938 141.883C304.641 142.133 305.211 142.258 305.648 142.258C306.008 142.258 306.414 142.25 306.867 142.234C307.32 142.203 307.781 142.156 308.25 142.094C308.719 142.016 309.18 141.906 309.633 141.766C310.086 141.625 310.484 141.438 310.828 141.203C311.188 140.953 311.469 140.648 311.672 140.289C311.891 139.914 312 139.469 312 138.953C312 138.422 311.859 137.961 311.578 137.57C311.312 137.164 310.961 136.812 310.523 136.516C310.086 136.219 309.586 135.969 309.023 135.766C308.461 135.562 307.891 135.383 307.312 135.227C306.75 135.07 306.203 134.938 305.672 134.828C305.141 134.703 304.68 134.586 304.289 134.477C303.57 134.273 302.812 134.07 302.016 133.867C301.219 133.648 300.43 133.406 299.648 133.141C298.867 132.859 298.117 132.531 297.398 132.156C296.695 131.781 296.07 131.336 295.523 130.82C294.992 130.289 294.562 129.672 294.234 128.969C293.922 128.25 293.766 127.414 293.766 126.461C293.766 124.711 294.109 123.25 294.797 122.078C295.5 120.891 296.422 119.945 297.562 119.242C298.703 118.523 300 118.016 301.453 117.719C302.906 117.422 304.383 117.273 305.883 117.273C306.914 117.273 308 117.383 309.141 117.602C310.281 117.805 311.391 118.117 312.469 118.539C313.547 118.945 314.555 119.445 315.492 120.039C316.43 120.633 317.211 121.312 317.836 122.078L313.219 125.875C312.875 124.938 312.422 124.133 311.859 123.461C311.312 122.789 310.711 122.242 310.055 121.82C309.414 121.383 308.75 121.062 308.062 120.859C307.391 120.656 306.766 120.555 306.188 120.555C305.625 120.555 304.992 120.578 304.289 120.625C303.586 120.672 302.922 120.805 302.297 121.023C301.688 121.242 301.164 121.578 300.727 122.031C300.305 122.469 300.094 123.078 300.094 123.859C300.094 124.422 300.219 124.906 300.469 125.312C300.734 125.703 301.078 126.047 301.5 126.344C301.922 126.625 302.398 126.867 302.93 127.07C303.477 127.258 304.031 127.43 304.594 127.586C305.156 127.727 305.703 127.852 306.234 127.961C306.766 128.07 307.242 128.188 307.664 128.312C308.383 128.516 309.141 128.727 309.938 128.945C310.75 129.148 311.547 129.391 312.328 129.672C313.109 129.938 313.859 130.258 314.578 130.633C315.312 130.992 315.953 131.438 316.5 131.969C317.047 132.5 317.484 133.125 317.812 133.844C318.141 134.547 318.305 135.383 318.305 136.352ZM346.617 136.352C346.617 137.539 346.445 138.594 346.102 139.516C345.758 140.438 345.289 141.242 344.695 141.93C344.102 142.602 343.398 143.172 342.586 143.641C341.773 144.094 340.898 144.461 339.961 144.742C339.039 145.023 338.07 145.227 337.055 145.352C336.039 145.477 335.031 145.539 334.031 145.539C332.688 145.539 331.5 145.453 330.469 145.281C329.438 145.109 328.453 144.836 327.516 144.461C326.578 144.07 325.641 143.57 324.703 142.961C323.781 142.352 322.75 141.609 321.609 140.734L326.227 136.961C326.648 137.758 327.203 138.484 327.891 139.141C328.594 139.781 329.32 140.336 330.07 140.805C330.82 141.273 331.547 141.633 332.25 141.883C332.953 142.133 333.523 142.258 333.961 142.258C334.32 142.258 334.727 142.25 335.18 142.234C335.633 142.203 336.094 142.156 336.562 142.094C337.031 142.016 337.492 141.906 337.945 141.766C338.398 141.625 338.797 141.438 339.141 141.203C339.5 140.953 339.781 140.648 339.984 140.289C340.203 139.914 340.312 139.469 340.312 138.953C340.312 138.422 340.172 137.961 339.891 137.57C339.625 137.164 339.273 136.812 338.836 136.516C338.398 136.219 337.898 135.969 337.336 135.766C336.773 135.562 336.203 135.383 335.625 135.227C335.062 135.07 334.516 134.938 333.984 134.828C333.453 134.703 332.992 134.586 332.602 134.477C331.883 134.273 331.125 134.07 330.328 133.867C329.531 133.648 328.742 133.406 327.961 133.141C327.18 132.859 326.43 132.531 325.711 132.156C325.008 131.781 324.383 131.336 323.836 130.82C323.305 130.289 322.875 129.672 322.547 128.969C322.234 128.25 322.078 127.414 322.078 126.461C322.078 124.711 322.422 123.25 323.109 122.078C323.812 120.891 324.734 119.945 325.875 119.242C327.016 118.523 328.312 118.016 329.766 117.719C331.219 117.422 332.695 117.273 334.195 117.273C335.227 117.273 336.312 117.383 337.453 117.602C338.594 117.805 339.703 118.117 340.781 118.539C341.859 118.945 342.867 119.445 343.805 120.039C344.742 120.633 345.523 121.312 346.148 122.078L341.531 125.875C341.188 124.938 340.734 124.133 340.172 123.461C339.625 122.789 339.023 122.242 338.367 121.82C337.727 121.383 337.062 121.062 336.375 120.859C335.703 120.656 335.078 120.555 334.5 120.555C333.938 120.555 333.305 120.578 332.602 120.625C331.898 120.672 331.234 120.805 330.609 121.023C330 121.242 329.477 121.578 329.039 122.031C328.617 122.469 328.406 123.078 328.406 123.859C328.406 124.422 328.531 124.906 328.781 125.312C329.047 125.703 329.391 126.047 329.812 126.344C330.234 126.625 330.711 126.867 331.242 127.07C331.789 127.258 332.344 127.43 332.906 127.586C333.469 127.727 334.016 127.852 334.547 127.961C335.078 128.07 335.555 128.188 335.977 128.312C336.695 128.516 337.453 128.727 338.25 128.945C339.062 129.148 339.859 129.391 340.641 129.672C341.422 129.938 342.172 130.258 342.891 130.633C343.625 130.992 344.266 131.438 344.812 131.969C345.359 132.5 345.797 133.125 346.125 133.844C346.453 134.547 346.617 135.383 346.617 136.352ZM380.227 131.406C380.227 132.812 380.039 134.133 379.664 135.367C379.289 136.602 378.766 137.742 378.094 138.789C377.438 139.836 376.641 140.781 375.703 141.625C374.766 142.453 373.734 143.156 372.609 143.734C371.5 144.312 370.305 144.758 369.023 145.07C367.758 145.383 366.453 145.539 365.109 145.539C363.766 145.539 362.461 145.383 361.195 145.07C359.93 144.758 358.734 144.312 357.609 143.734C356.5 143.156 355.477 142.453 354.539 141.625C353.602 140.781 352.797 139.836 352.125 138.789C351.469 137.742 350.953 136.602 350.578 135.367C350.203 134.117 350.016 132.797 350.016 131.406C350.016 130.016 350.203 128.703 350.578 127.469C350.953 126.219 351.469 125.07 352.125 124.023C352.797 122.977 353.602 122.039 354.539 121.211C355.477 120.367 356.5 119.656 357.609 119.078C358.734 118.5 359.93 118.055 361.195 117.742C362.461 117.43 363.766 117.273 365.109 117.273C366.453 117.273 367.758 117.43 369.023 117.742C370.305 118.055 371.5 118.5 372.609 119.078C373.734 119.656 374.766 120.367 375.703 121.211C376.641 122.039 377.438 122.977 378.094 124.023C378.766 125.07 379.289 126.219 379.664 127.469C380.039 128.703 380.227 130.016 380.227 131.406ZM372.164 131.406C372.164 130.656 372.117 129.867 372.023 129.039C371.945 128.195 371.805 127.375 371.602 126.578C371.398 125.766 371.117 124.992 370.758 124.258C370.414 123.508 369.984 122.859 369.469 122.312C368.953 121.75 368.336 121.305 367.617 120.977C366.898 120.633 366.062 120.461 365.109 120.461C364.203 120.461 363.398 120.633 362.695 120.977C361.992 121.32 361.375 121.781 360.844 122.359C360.328 122.922 359.891 123.578 359.531 124.328C359.188 125.078 358.906 125.859 358.688 126.672C358.469 127.469 358.312 128.281 358.219 129.109C358.125 129.922 358.078 130.688 358.078 131.406C358.078 132.125 358.125 132.898 358.219 133.727C358.312 134.539 358.469 135.352 358.688 136.164C358.906 136.977 359.188 137.758 359.531 138.508C359.891 139.242 360.328 139.898 360.844 140.477C361.375 141.039 361.992 141.492 362.695 141.836C363.398 142.18 364.203 142.352 365.109 142.352C366.047 142.352 366.875 142.188 367.594 141.859C368.312 141.516 368.93 141.062 369.445 140.5C369.977 139.938 370.414 139.289 370.758 138.555C371.102 137.82 371.375 137.047 371.578 136.234C371.797 135.422 371.945 134.602 372.023 133.773C372.117 132.945 372.164 132.156 372.164 131.406ZM408.539 136.352C408.539 137.539 408.367 138.594 408.023 139.516C407.68 140.438 407.211 141.242 406.617 141.93C406.023 142.602 405.32 143.172 404.508 143.641C403.695 144.094 402.82 144.461 401.883 144.742C400.961 145.023 399.992 145.227 398.977 145.352C397.961 145.477 396.953 145.539 395.953 145.539C394.609 145.539 393.422 145.453 392.391 145.281C391.359 145.109 390.375 144.836 389.438 144.461C388.5 144.07 387.562 143.57 386.625 142.961C385.703 142.352 384.672 141.609 383.531 140.734L388.148 136.961C388.57 137.758 389.125 138.484 389.812 139.141C390.516 139.781 391.242 140.336 391.992 140.805C392.742 141.273 393.469 141.633 394.172 141.883C394.875 142.133 395.445 142.258 395.883 142.258C396.242 142.258 396.648 142.25 397.102 142.234C397.555 142.203 398.016 142.156 398.484 142.094C398.953 142.016 399.414 141.906 399.867 141.766C400.32 141.625 400.719 141.438 401.062 141.203C401.422 140.953 401.703 140.648 401.906 140.289C402.125 139.914 402.234 139.469 402.234 138.953C402.234 138.422 402.094 137.961 401.812 137.57C401.547 137.164 401.195 136.812 400.758 136.516C400.32 136.219 399.82 135.969 399.258 135.766C398.695 135.562 398.125 135.383 397.547 135.227C396.984 135.07 396.438 134.938 395.906 134.828C395.375 134.703 394.914 134.586 394.523 134.477C393.805 134.273 393.047 134.07 392.25 133.867C391.453 133.648 390.664 133.406 389.883 133.141C389.102 132.859 388.352 132.531 387.633 132.156C386.93 131.781 386.305 131.336 385.758 130.82C385.227 130.289 384.797 129.672 384.469 128.969C384.156 128.25 384 127.414 384 126.461C384 124.711 384.344 123.25 385.031 122.078C385.734 120.891 386.656 119.945 387.797 119.242C388.938 118.523 390.234 118.016 391.688 117.719C393.141 117.422 394.617 117.273 396.117 117.273C397.148 117.273 398.234 117.383 399.375 117.602C400.516 117.805 401.625 118.117 402.703 118.539C403.781 118.945 404.789 119.445 405.727 120.039C406.664 120.633 407.445 121.312 408.07 122.078L403.453 125.875C403.109 124.938 402.656 124.133 402.094 123.461C401.547 122.789 400.945 122.242 400.289 121.82C399.648 121.383 398.984 121.062 398.297 120.859C397.625 120.656 397 120.555 396.422 120.555C395.859 120.555 395.227 120.578 394.523 120.625C393.82 120.672 393.156 120.805 392.531 121.023C391.922 121.242 391.398 121.578 390.961 122.031C390.539 122.469 390.328 123.078 390.328 123.859C390.328 124.422 390.453 124.906 390.703 125.312C390.969 125.703 391.312 126.047 391.734 126.344C392.156 126.625 392.633 126.867 393.164 127.07C393.711 127.258 394.266 127.43 394.828 127.586C395.391 127.727 395.938 127.852 396.469 127.961C397 128.07 397.477 128.188 397.898 128.312C398.617 128.516 399.375 128.727 400.172 128.945C400.984 129.148 401.781 129.391 402.562 129.672C403.344 129.938 404.094 130.258 404.812 130.633C405.547 130.992 406.188 131.438 406.734 131.969C407.281 132.5 407.719 133.125 408.047 133.844C408.375 134.547 408.539 135.383 408.539 136.352Z" fill="#141414"/>
<path fill-rule="evenodd" clip-rule="evenodd" d="M213.057 6.09822C214.771 6.09822 215.199 6.84741 215.199 7.222V12.8409C204.976 13.7346 206.27 23.8681 207.229 31.3712C207.476 33.3028 207.7 35.06 207.7 36.4404C207.7 43.1831 203.415 48.802 200.201 49.9258C202.772 49.9258 205.558 53.6718 206.629 55.5447L195.899 69.4274C196.356 71.4569 199.519 76.8834 206.629 77.8854V79.1442C206.629 86.592 208.835 86.3273 211.419 86.0173C211.954 85.953 212.505 85.8869 213.057 85.8869C215.081 85.8869 215.199 86.5151 215.199 87.0107V91.5058C215.199 93.3038 213.771 93.7534 213.057 93.7534H202.344C188.67 93.7534 186.356 84.0027 185.263 79.3941L185.204 79.1442C184.405 75.7921 184.797 66.8159 185.049 61.0695C185.134 59.1099 185.204 57.5258 185.204 56.6685C185.204 53.9714 180.919 53.2972 178.776 53.2972V45.4307C185.204 46.5545 185.204 44.3069 185.204 42.0593C185.204 41.8052 185.176 41.4312 185.139 40.9224C184.943 38.2494 184.475 31.8566 186.275 19.5836C187.989 7.89627 196.988 5.72363 201.273 6.09822H213.057ZM191.631 85.8869L194.42 71.341C195.989 76.4751 201.754 79.2231 204.219 79.4251L191.631 85.8869Z" fill="#89B98C"/>
<path d="M219.577 99.8871C219.577 100.258 220.005 101 221.719 101H233.503C237.343 100.921 246.787 99.2193 248.501 87.6443C250.301 75.4893 249.833 69.158 249.637 66.5108C249.6 66.0069 249.572 65.6364 249.572 65.3847C249.572 63.1588 249.572 60.9328 256 62.0458V54.2549C253.857 54.2549 249.572 53.5872 249.572 50.916C249.572 50.0669 249.642 48.4981 249.727 46.5574C249.979 40.8662 250.371 31.9763 249.572 28.6565L249.513 28.4089C248.42 23.8447 246.106 14.1878 232.432 14.1878H221.719C221.005 14.1878 219.577 14.633 219.577 16.4137L220.077 20.8618C220.261 21.6587 220.077 21.9747 222.219 21.9747C222.771 21.9747 222.822 21.9131 223.357 21.8495C225.941 21.5424 228.147 21.2803 228.147 28.6565V31.9954C228.147 31.9954 230.248 28.8064 231.361 27.5435C233.322 25.3175 235.708 26.4157 237.607 27.5435C239.933 28.9246 243.449 31.9567 241.892 34.2214L236.536 42.0122L229.037 36.4473V39.7862L234.393 44.2382L228.147 53.142C229.218 54.9969 232.004 57.5939 234.575 57.5939C231.361 58.7069 227.076 64.2717 227.076 70.9496C227.076 72.3168 227.3 74.0571 227.547 75.9701C228.506 83.4011 229.8 93.4371 219.577 94.3222V99.8871Z" fill="#89B98C"/>
<path d="M213.057 6.09822C214.771 6.09822 215.199 6.84741 215.199 7.222V12.8409C204.976 13.7346 206.27 23.8681 207.229 31.3712C207.476 33.3028 207.7 35.06 207.7 36.4404C207.7 43.1831 203.415 48.802 200.201 49.9258C202.772 49.9258 205.558 53.6718 206.629 55.5447L195.899 69.4274C196.356 71.4569 199.519 76.8834 206.629 77.8854V79.1442C206.629 86.592 208.835 86.3273 211.419 86.0173C211.954 85.953 212.505 85.8869 213.057 85.8869C215.081 85.8869 215.199 86.5151 215.199 87.0107M213.057 6.09822H201.273M213.057 6.09822C211.343 6.09822 204.487 6.09822 201.273 6.09822M215.199 87.0107V91.5058M215.199 87.0107C215.199 87.7598 215.199 89.7077 215.199 91.5058M215.199 91.5058C215.199 93.3038 213.771 93.7534 213.057 93.7534M213.057 93.7534H202.344M213.057 93.7534C213.347 93.7534 213.485 93.7534 202.344 93.7534M202.344 93.7534C188.67 93.7534 186.356 84.0027 185.263 79.3941L185.204 79.1442C184.405 75.7921 184.797 66.8159 185.049 61.0695C185.134 59.1099 185.204 57.5258 185.204 56.6685C185.204 53.9714 180.919 53.2972 178.776 53.2972V45.4307C185.204 46.5545 185.204 44.3069 185.204 42.0593C185.204 41.8052 185.176 41.4312 185.139 40.9224C184.943 38.2494 184.475 31.8566 186.275 19.5836C187.989 7.89627 196.988 5.72363 201.273 6.09822M221.719 101C220.005 101 219.577 100.258 219.577 99.8871V94.3222C229.8 93.4371 228.506 83.4011 227.547 75.9701C227.3 74.0571 227.076 72.3168 227.076 70.9496C227.076 64.2717 231.361 58.7069 234.575 57.5939C232.004 57.5939 229.218 54.9969 228.147 53.142L234.393 44.2382L229.037 39.7862V36.4473L236.536 42.0122L241.892 34.2214C243.449 31.9567 239.933 28.9246 237.607 27.5435C235.708 26.4157 233.322 25.3175 231.361 27.5435C230.248 28.8064 228.147 31.9954 228.147 31.9954M221.719 101H233.503M221.719 101C223.433 101 230.29 101 233.503 101M233.503 101C237.343 100.921 246.787 99.2193 248.501 87.6443C250.301 75.4893 249.833 69.158 249.637 66.5108C249.6 66.0069 249.572 65.6364 249.572 65.3847C249.572 63.1588 249.572 60.9328 256 62.0458V54.2549C253.857 54.2549 249.572 53.5872 249.572 50.916C249.572 50.0669 249.642 48.4981 249.727 46.5574C249.979 40.8662 250.371 31.9763 249.572 28.6565L249.513 28.4089C248.42 23.8447 246.106 14.1878 232.432 14.1878M232.432 14.1878H221.719M232.432 14.1878C221.291 14.1878 221.528 14.1974 221.719 14.1878M221.719 14.1878C221.005 14.1878 219.577 14.633 219.577 16.4137M219.577 16.4137L220.077 20.8618M219.577 16.4137C219.577 18.1945 220.064 20.6548 220.077 20.8618M220.077 20.8618C220.261 21.6587 220.077 21.9747 222.219 21.9747C222.771 21.9747 222.822 21.9131 223.357 21.8495C225.941 21.5424 228.147 21.2803 228.147 28.6565M228.147 28.6565V31.9954M228.147 28.6565C228.147 29.5469 228.147 31.2534 228.147 31.9954M194.42 71.341L191.631 85.8869L204.219 79.4251C201.754 79.2231 195.989 76.4751 194.42 71.341Z" stroke="#89B98C"/>
<path d="M176.336 1.84321L167.388 1L166.981 5.21606L163.321 2.26482L157.627 9.43212L162.914 13.6482L156 17.4426L160.474 25.8747L165.354 22.9235L164.541 28.826L173.895 29.6692L174.302 23.7667L178.369 27.5612L184.47 19.9723L178.776 14.913L184.063 11.9618L179.589 3.95124L175.929 6.05927L176.336 1.84321Z" fill="#89B98C" stroke="#89B98C"/>
</svg>
